<?xml version="1.0" standalone="no"?>
<!DOCTYPE svg PUBLIC "-//W3C//DTD SVG 20010904//EN"
 "http://www.w3.org/TR/2001/REC-SVG-20010904/DTD/svg10.dtd">
<svg version="1.0" xmlns="http://www.w3.org/2000/svg"
 width="576.000000pt" height="576.000000pt" viewBox="0 0 576.000000 576.000000"
 preserveAspectRatio="xMidYMid meet">
<metadata>
Created by potrace 1.14, written by Peter Selinger 2001-2017
</metadata>
<g transform="translate(0.000000,576.000000) scale(0.100000,-0.100000)"
fill="#000000" stroke="none">
<path d="M730 4800 c0 -3 -39 -4 -87 -4 -47 1 -100 -2 -117 -7 -17 -5 -44 -12
-61 -14 -16 -3 -68 -24 -115 -47 -147 -72 -263 -208 -322 -380 -22 -61 -22
-80 -26 -525 l-3 -463 23 -1 c168 -6 327 -110 404 -264 41 -83 45 -97 50 -195
4 -94 -17 -184 -62 -259 -43 -71 -67 -97 -134 -148 -79 -58 -154 -85 -238 -87
l-43 -1 4 -455 c2 -250 7 -468 11 -485 4 -16 9 -37 11 -45 2 -8 4 -16 5 -17 2
-2 3 -6 5 -10 1 -5 7 -21 13 -36 7 -16 12 -30 12 -32 0 -17 83 -128 129 -174
88 -86 141 -120 246 -156 70 -24 79 -25 175 -31 47 -3 93 -7 103 -9 9 -1 17 0
17 4 0 3 32 4 70 1 39 -3 70 -3 70 0 0 3 55 4 122 2 68 -2 139 -3 158 -2 19 1
42 2 50 1 8 0 40 0 70 0 30 1 62 1 70 0 8 -1 33 -1 55 0 22 1 45 1 50 1 75 -5
245 -6 245 -2 0 3 32 3 70 0 39 -3 70 -3 70 0 0 3 39 4 87 3 49 -1 111 -2 138
-2 28 -1 66 -2 85 -2 19 -1 40 -1 45 0 70 4 135 5 135 1 0 -3 27 -5 60 -5 33
0 60 2 60 5 0 3 47 3 105 0 58 -3 105 -3 105 0 0 3 32 3 70 0 39 -3 70 -3 70
0 0 3 55 4 122 2 68 -2 139 -3 158 -2 19 1 42 2 50 1 8 0 40 0 70 0 30 1 62 1
70 0 8 -1 33 -1 55 0 22 1 45 1 50 1 75 -5 245 -6 245 -2 0 3 32 3 70 0 39 -3
70 -3 70 0 0 3 39 4 87 3 49 -1 111 -2 138 -2 28 -1 66 -2 85 -2 19 -1 40 -1
45 0 70 4 135 5 135 1 0 -3 27 -5 60 -5 33 0 60 2 60 5 0 3 47 3 105 0 58 -3
105 -3 105 0 0 3 31 3 70 0 38 -3 70 -3 70 0 0 3 55 4 122 2 68 -2 139 -3 158
-2 19 1 42 2 50 1 86 -7 206 8 289 35 42 15 78 29 81 33 3 3 23 15 44 26 60
30 178 152 219 226 20 36 47 94 59 130 22 62 22 78 26 527 l3 462 -23 1 c-192
7 -373 144 -434 330 -19 54 -25 205 -12 259 25 102 100 213 188 277 64 48 183
92 241 89 l39 -1 0 435 c-1 492 -4 520 -71 658 -57 118 -165 225 -284 282 -47
23 -93 43 -103 45 -9 2 -17 4 -17 5 0 7 -221 23 -280 20 -22 -1 -44 -2 -50 -2
-75 5 -245 6 -245 2 0 -3 -31 -3 -70 0 -39 3 -70 3 -70 0 0 -3 -48 -3 -106 0
-58 3 -107 3 -109 1 -6 -5 -115 -7 -115 -1 0 3 -28 4 -62 2 -35 -2 -79 -2 -98
-1 -19 0 -42 1 -50 0 -8 0 -35 0 -60 0 -25 0 -49 1 -55 1 -5 0 -57 -1 -115 -1
-58 0 -114 0 -125 -1 -11 0 -36 0 -55 1 -19 1 -39 1 -45 0 -70 -4 -135 -5
-135 -1 0 3 -27 5 -60 5 -33 0 -60 -2 -60 -5 0 -3 -46 -4 -102 -3 -57 1 -125
2 -153 2 -27 1 -66 2 -85 2 -19 1 -39 1 -45 0 -70 -4 -135 -5 -135 -1 0 3 -27
5 -60 5 -33 0 -60 -2 -60 -5 0 -3 -54 -3 -121 0 -66 3 -122 3 -124 1 -6 -5
-115 -7 -115 -1 0 3 -28 4 -62 2 -35 -2 -79 -2 -98 -1 -19 0 -42 1 -50 0 -20
-1 -85 -1 -193 2 -48 1 -87 0 -87 -3 0 -3 -31 -3 -70 0 -38 3 -70 3 -70 0 0
-3 -55 -4 -122 -2 -68 2 -139 3 -158 2 -19 -1 -42 -2 -50 -1 -8 0 -40 0 -70 0
-30 -1 -62 -1 -70 0 -8 1 -33 1 -55 0 -22 -1 -44 -1 -50 -1 -75 5 -245 6 -245
2 0 -3 -31 -3 -70 0 -38 3 -70 3 -70 0z m780 -640 c0 4 174 3 255 -2 6 0 26 0
45 1 19 1 42 1 50 0 8 -1 40 -1 70 0 30 0 62 0 70 0 8 -1 33 0 55 0 22 1 93 1
158 -1 64 -2 117 -1 117 2 0 3 32 3 70 0 39 -3 70 -3 70 0 0 3 39 4 87 3 137
-3 177 -3 193 -2 8 1 31 0 50 0 19 -1 63 -1 98 1 34 2 62 1 62 -2 0 -3 27 -5
60 -5 33 0 60 2 60 5 0 3 46 4 102 3 163 -3 192 -3 208 -2 8 1 31 0 50 0 19
-1 63 -1 98 1 34 2 62 1 62 -2 0 -3 27 -5 60 -5 33 0 60 2 60 5 0 3 54 3 121
0 66 -3 123 -3 125 -1 2 2 50 3 106 2 57 -2 109 -2 116 -2 6 1 18 1 25 2 6 1
28 1 47 0 19 -1 55 -1 80 -1 166 -1 226 -7 275 -30 27 -13 68 -44 92 -67 66
-67 89 -129 92 -248 1 -43 5 -83 7 -87 3 -4 2 -8 -3 -8 -4 0 -8 -27 -8 -60 0
-33 2 -60 5 -60 4 0 3 -65 -1 -135 -1 -5 -1 -26 0 -45 0 -19 1 -57 2 -85 0
-27 1 -96 2 -153 1 -56 0 -102 -3 -102 -3 0 -5 -27 -5 -60 0 -33 2 -60 5 -60
4 0 3 -65 -1 -135 -1 -5 -1 -26 0 -45 0 -19 1 -57 2 -85 0 -27 1 -96 2 -153 1
-56 0 -102 -3 -102 -3 0 -5 -27 -5 -60 0 -33 2 -60 5 -60 4 0 3 -65 -1 -135
-1 -5 -1 -26 0 -45 1 -19 1 -44 1 -55 -1 -11 -1 -54 -1 -95 1 -41 -1 -92 -3
-112 -5 -45 -35 -128 -47 -128 -5 0 -9 -6 -9 -13 0 -19 -75 -83 -124 -105 -51
-24 -114 -33 -211 -32 -75 1 -94 1 -117 -1 -7 -1 -29 0 -48 0 -19 1 -63 1 -98
-1 -34 -2 -62 -1 -62 2 0 3 -27 5 -60 5 -33 0 -60 -2 -60 -5 0 -3 -54 -3 -121
0 -66 3 -123 3 -125 1 -2 -2 -50 -3 -106 -2 -57 2 -109 2 -115 2 -7 -1 -19 -1
-25 -2 -7 0 -31 0 -53 0 -22 1 -47 1 -55 0 -8 0 -73 0 -145 1 -71 0 -134 0
-140 0 -5 -1 -55 -1 -110 0 -55 1 -106 1 -112 1 -7 -1 -19 -1 -25 -2 -7 -1
-29 -1 -48 0 -35 1 -116 3 -135 3 -251 -1 -255 -1 -277 -3 -7 -1 -29 0 -48 0
-19 1 -63 1 -98 -1 -34 -2 -62 -1 -62 2 0 3 -27 5 -60 5 -33 0 -60 -2 -60 -5
0 -3 -47 -3 -105 0 -58 3 -105 3 -105 0 0 -3 -31 -3 -70 0 -38 3 -70 3 -70 0
0 -4 -174 -3 -255 2 -5 0 -26 -1 -45 -2 -89 -5 -197 9 -244 31 -111 52 -176
152 -183 284 -2 44 -5 90 -7 103 -2 12 0 22 3 22 3 0 6 27 6 60 0 33 -2 60 -5
60 -4 0 -3 65 1 135 1 6 1 26 0 45 0 19 -1 58 -2 85 0 28 -1 89 -2 138 -1 48
0 87 3 87 3 0 3 32 0 70 -3 39 -3 70 0 70 4 0 3 170 -2 245 0 6 0 28 1 50 1
22 1 47 0 55 -1 8 -1 40 0 70 0 30 0 62 0 70 -1 8 0 31 1 50 1 19 0 90 -2 158
-2 67 -1 122 2 122 3 0 3 32 0 70 -3 39 -3 70 0 70 3 0 4 32 3 72 -2 72 25
179 47 186 6 2 10 9 10 16 0 19 77 82 129 107 36 18 65 23 133 23 49 1 88 3
88 6 0 3 32 3 70 0 39 -3 70 -3 70 0z"/>
<path d="M1360 3843 c0 -5 -18 -7 -39 -5 l-39 4 -4 -46 c-2 -26 -1 -54 3 -63
3 -9 2 -35 -1 -58 -3 -23 -3 -50 0 -60 4 -11 4 -36 0 -56 -4 -21 -4 -42 0 -48
3 -6 3 -35 0 -65 -3 -30 -3 -62 0 -72 4 -10 4 -35 0 -55 -4 -21 -4 -42 0 -48
3 -6 3 -35 0 -65 -3 -30 -3 -62 0 -72 4 -10 4 -35 0 -55 -4 -21 -4 -42 -1 -48
4 -6 4 -38 1 -71 -3 -33 -3 -65 0 -71 4 -5 4 -30 0 -55 -4 -24 -3 -47 2 -50 4
-3 6 -9 3 -13 -2 -5 -4 -35 -5 -67 0 -32 0 -75 -1 -94 -1 -19 -1 -41 0 -47 1
-7 1 -19 2 -25 1 -14 0 -112 -2 -168 -1 -19 -1 -42 0 -50 0 -8 0 -40 0 -70 -1
-30 -1 -62 0 -70 1 -8 1 -31 0 -50 -1 -19 -1 -42 0 -50 0 -8 1 -48 0 -88 l0
-72 40 3 c23 2 41 1 41 -2 0 -3 28 -5 62 -4 35 1 63 2 63 3 0 1 26 2 58 3 31
1 57 0 57 -3 0 -4 117 -4 130 1 3 1 9 1 13 0 14 -2 211 -1 275 1 34 2 62 1 62
-2 0 -3 28 -4 62 -3 35 1 63 2 63 3 0 1 26 2 58 3 31 1 57 0 57 -3 0 -3 27 -5
60 -5 33 0 60 2 60 5 0 3 47 3 105 0 58 -3 105 -3 105 0 0 3 32 3 70 0 39 -3
70 -3 70 0 0 3 40 3 90 0 50 -3 90 -3 90 0 0 3 32 3 70 0 39 -3 70 -3 70 0 0
3 40 3 90 0 50 -3 90 -3 90 0 0 3 32 3 70 0 39 -3 70 -3 70 0 0 3 40 3 90 0
50 -3 90 -3 90 0 0 3 32 3 70 0 39 -3 70 -3 70 0 0 3 55 4 122 2 68 -2 139 -3
158 -2 19 1 42 2 50 1 8 0 40 0 70 0 30 1 61 1 68 0 28 -2 39 -3 77 -1 22 1
45 1 50 0 6 -1 38 -2 72 -1 l62 1 0 55 c0 30 2 59 5 64 4 5 3 12 -2 15 -5 3
-6 28 -2 56 4 27 4 50 1 50 -3 0 -5 27 -3 60 1 33 3 87 5 120 1 33 0 60 -3 60
-3 0 -4 28 -2 62 1 35 2 88 1 118 0 30 0 62 0 70 1 8 1 31 0 50 0 19 0 42 0
50 0 8 0 40 0 70 0 30 0 61 0 68 0 6 0 28 0 47 0 19 0 43 0 53 1 57 0 140 -2
230 -1 56 0 102 3 102 3 0 5 27 5 60 0 33 -2 60 -5 60 -3 0 -4 28 -2 62 4 91
2 170 -4 179 -3 5 0 9 6 9 6 0 8 4 5 10 -3 5 -6 39 -6 74 l-1 65 -31 1 c-18 0
-40 0 -49 1 -22 0 -121 0 -145 0 -77 -2 -168 1 -175 5 -4 3 -8 1 -8 -3 0 -5
-31 -6 -70 -3 -38 3 -70 3 -70 0 0 -3 -39 -4 -87 -3 -77 2 -159 3 -215 2 -10
0 -34 0 -53 0 -19 0 -41 0 -47 0 -7 0 -38 0 -68 0 -30 0 -62 0 -70 0 -8 0 -31
0 -50 0 -19 1 -42 1 -50 0 -8 0 -40 0 -70 0 -30 1 -83 0 -118 -1 -34 -2 -62
-1 -62 2 0 3 -27 4 -60 3 -33 -2 -87 -4 -120 -5 -33 -2 -60 -1 -60 2 0 3 -27
5 -60 5 -33 0 -60 -2 -60 -5 0 -3 -54 -3 -121 0 -67 3 -123 2 -126 -3 -2 -4
-8 -5 -13 -2 -7 4 -157 7 -230 4 -8 0 -67 0 -130 0 -63 0 -122 0 -130 0 -8 0
-40 0 -70 0 -30 0 -62 0 -70 0 -8 0 -31 0 -50 0 -19 1 -42 1 -50 0 -20 -1
-128 0 -165 2 -16 0 -37 1 -45 0 -43 -3 -103 0 -111 5 -5 3 -9 1 -9 -3z"/>
</g>
</svg>
